<svg xmlns="http://www.w3.org/2000/svg" width="21" height="21" viewBox="0 0 21 21"><g><g><path fill="#fff" d="M5.155 15.918l-.065-.068h.001C1.741 12.51-.085 8.314.013 4.268l.007-.298.187-.234c.29-.364.575-.685.874-.981A11.025 11.025 0 0 1 4.911.289c.176-.067.374-.102.59-.102.486 0 1.582.245 1.861 1.003.493 1.356 1.116 3.123 1.569 4.813.125.475.003 1.621-.668 2.04l-1.597 1c.014.013.007.26.215.542.62.84 1.338 1.67 2.133 2.471.801.778 1.64 1.484 2.48 2.09a.91.91 0 0 0 .5.188l.553-.763.51-.793c.442-.68 1.55-.698 1.675-.698.13 0 .244.011.35.035 2.104.464 3.357.863 4.963 1.583.714.319 1.165 1.599.845 2.403a10.87 10.87 0 0 1-3.485 4.65l-.235.183-.604.01c-4.023 0-8.182-1.832-11.411-5.026zm1.214-1.326l.087.087c2.859 2.827 6.535 4.465 10.07 4.478a9.36 9.36 0 0 0 .6-.539 9.11 9.11 0 0 0 2.08-3.166c-.009-.007-.044-.116-.082-.203-1.398-.616-2.546-.974-4.436-1.391-.047.006-.14.024-.213.044l-.909 1.417c-.562.904-2.06 1.05-3.137.27a23.96 23.96 0 0 1-2.693-2.27 24.422 24.422 0 0 1-2.314-2.68c-.443-.6-.624-1.312-.496-1.955.097-.495.375-.905.78-1.154l1.428-.896a.959.959 0 0 0 .036-.247c-.397-1.463-.96-3.077-1.424-4.362a.82.82 0 0 0-.245-.051A9.26 9.26 0 0 0 2.36 4.019a9.063 9.063 0 0 0-.544.591c.014 3.451 1.701 7.16 4.553 9.982z"/></g></g></svg>