<svg xmlns="http://www.w3.org/2000/svg" width="21" height="25" viewBox="0 0 21 25"><g><g><path fill="#fff" d="M9.844 23.945C8.839 23.108.02 15.61.02 10.197.02 4.549 4.726-.045 10.507-.045c5.782 0 10.486 4.594 10.486 10.242 0 5.412-8.816 12.911-9.823 13.748a1.035 1.035 0 0 1-1.327 0zM2.067 10.197c0 3.509 5.583 9.145 8.44 11.658 2.857-2.513 8.44-8.15 8.44-11.658 0-4.546-3.785-8.244-8.44-8.244-4.653 0-8.44 3.698-8.44 8.244zm3.326 0c0-2.755 2.295-4.996 5.114-4.996 2.82 0 5.114 2.241 5.114 4.996 0 2.754-2.293 4.996-5.114 4.996-2.819 0-5.114-2.242-5.114-4.996zm2.046 0c0 1.653 1.376 2.997 3.068 2.997 1.692 0 3.069-1.344 3.069-2.997 0-1.653-1.377-2.998-3.069-2.998S7.44 8.544 7.44 10.197z"/></g></g></svg>