<svg xmlns="http://www.w3.org/2000/svg" width="52" height="51" viewBox="0 0 52 51"><g><g><path fill="#fff" d="M43.787 7.792c4.572 4.56 7.396 10.85 7.396 17.809 0 6.959-2.824 13.248-7.396 17.809a25.16 25.16 0 0 1-17.852 7.377A25.21 25.21 0 0 1 8.083 43.41C3.51 38.85.687 32.56.687 25.6c0-6.959 2.824-13.248 7.396-17.809A25.209 25.209 0 0 1 25.935.415a25.16 25.16 0 0 1 17.852 7.377zM25.935 2.381A23.254 23.254 0 0 0 9.48 9.187C5.272 13.384 2.658 19.186 2.658 25.6c0 6.415 2.614 12.216 6.823 16.428a23.24 23.24 0 0 0 16.454 6.792c6.43 0 12.246-2.594 16.468-6.792 4.208-4.212 6.808-10.013 6.808-16.428 0-6.415-2.6-12.217-6.808-16.414C38.181 4.989 32.366 2.38 25.935 2.38zm-6.459 23.22a6.457 6.457 0 0 0 6.459 6.457c3.579 0 6.473-2.887 6.473-6.457 0-3.556-2.894-6.457-6.473-6.457a6.466 6.466 0 0 0-6.459 6.457zm13.142-12.62c3.299 0 5.983 2.676 5.983 5.968v13.318c0 3.277-2.684 5.969-5.983 5.969H19.267c-3.285 0-5.984-2.692-5.984-5.969V18.95c0-3.292 2.699-5.969 5.984-5.969zm-13.351 1.492a4.487 4.487 0 0 0-4.488 4.476v13.318c0 2.468 2.013 4.476 4.488 4.476h13.35a4.487 4.487 0 0 0 4.488-4.476V18.95a4.487 4.487 0 0 0-4.487-4.476zm14.678 1.882a1.311 1.311 0 1 1 0 2.622 1.31 1.31 0 1 1 0-2.622zm.154 9.246c0 4.505-3.648 8.144-8.164 8.144-4.502 0-8.164-3.64-8.164-8.144 0-4.49 3.662-8.144 8.164-8.144 4.516 0 8.164 3.653 8.164 8.144z"/></g></g></svg>