<svg xmlns="http://www.w3.org/2000/svg" width="51" height="51" viewBox="0 0 51 51"><g><g><path fill="#fff" d="M43.279 7.42c4.571 4.561 7.395 10.85 7.395 17.81 0 6.958-2.824 13.248-7.395 17.808a25.185 25.185 0 0 1-17.853 7.377 25.185 25.185 0 0 1-17.852-7.377C3.003 38.478.18 32.188.18 25.229c0-6.958 2.824-13.248 7.395-17.808A25.184 25.184 0 0 1 25.426.043 25.184 25.184 0 0 1 43.28 7.421zM25.426 2.01A23.23 23.23 0 0 0 8.972 8.814c-4.208 4.198-6.822 10-6.822 16.414 0 6.416 2.614 12.217 6.822 16.428a23.218 23.218 0 0 0 16.454 6.792c6.431 0 12.247-2.594 16.469-6.792 4.208-4.211 6.808-10.012 6.808-16.428 0-6.415-2.6-12.216-6.808-16.414C37.673 4.618 31.857 2.01 25.426 2.01zm6.026 18.073l-.307 3.124-.168 2.022H27.16v12.859h-5.159V25.229h-2.6v-5.146h2.573v-2.315c0-2.12.992-5.383 5.424-5.383h3.984v4.407h-2.894c-.475 0-1.132.237-1.132 1.227v2.064z"/></g></g></svg>