<svg xmlns="http://www.w3.org/2000/svg" width="51" height="51" viewBox="0 0 51 51"><g><g><path fill="#fff" d="M43.138 7.79a25.088 25.088 0 0 1 7.396 17.818c0 6.943-2.825 13.245-7.396 17.803-4.571 4.546-10.876 7.376-17.852 7.376-6.977 0-13.281-2.83-17.853-7.376C2.863 38.853.038 32.551.038 25.608A25.088 25.088 0 0 1 7.433 7.79C12.005 3.245 18.31.415 25.286.415c6.976 0 13.28 2.83 17.852 7.375zM25.286 2.394A23.221 23.221 0 0 0 8.83 9.184a23.086 23.086 0 0 0-6.822 16.424c0 6.4 2.601 12.213 6.822 16.41a23.236 23.236 0 0 0 16.455 6.803c6.43 0 12.246-2.607 16.454-6.803a23.076 23.076 0 0 0 6.821-16.41c0-6.413-2.6-12.227-6.82-16.424a23.221 23.221 0 0 0-16.455-6.79zM37.923 20.24s.252 2.175.252 4.322v2.05c0 2.174-.252 4.322-.252 4.322s-.265 1.854-1.034 2.676c-.978 1.074-2.083 1.074-2.572 1.144-3.607.25-9.017.279-9.017.279s-6.71-.07-8.765-.28c-.587-.11-1.874-.07-2.852-1.143-.77-.822-1.035-2.676-1.035-2.676s-.266-2.148-.266-4.323v-2.049c0-2.147.266-4.322.266-4.322s.265-1.854 1.035-2.663c.978-1.06 2.068-1.073 2.585-1.143 3.608-.265 9.003-.265 9.003-.265h.029s5.41 0 9.017.265c.489.07 1.594.084 2.572 1.143.77.809 1.034 2.663 1.034 2.663zm-12.148 3.012l-3.16-1.715v7.528l6.977-3.75z"/></g></g></svg>